<?xml version="1.0" encoding="utf-8"?>
<!-- Generator: Adobe Illustrator 19.0.0, SVG Export Plug-In . SVG Version: 6.00 Build 0)  -->
<svg version="1.1" id="Layer_1" xmlns="http://www.w3.org/2000/svg" xmlns:xlink="http://www.w3.org/1999/xlink" x="0px" y="0px"
	 viewBox="0 0 566.9 566.9" enable-background="new 0 0 566.9 566.9" xml:space="preserve">
<g id="XMLID_176_">
	<path id="XMLID_90_" fill="#3A3A3A" d="M474.3,264.8v-0.5c-0.4-33.3-9.5-66-26.5-94.7c-0.1-0.1-0.1-0.2-0.3-0.5
		c-2.6-4.3-5.3-8.5-8.1-12.5c-2.9-4.1-5.9-8.1-9-11.8c-3.2-3.8-6.5-7.5-9.8-11c-14.7-15.2-31.9-27.9-51-37.5
		c-1.1-0.6-2.4-1.2-3.8-1.9l0.1-0.1l-10.4-4.7V90c-15.1-6.2-31-10.4-47.2-12.5c-16.2-2.1-33.5-2.1-49.7,0
		c-17.7,2.3-35.1,7.1-51.5,14.3l-0.5,0.2c-0.4,0.1-0.7,0.3-1.1,0.5c-0.1,0.1-0.3,0.1-0.5,0.2c-5,2.3-10,4.8-15.4,7.8
		c-2.6,1.5-5.4,3.1-8.1,4.8c-1.4,0.8-2.7,1.7-4.1,2.6c-1,0.6-2,1.3-2.9,2c-0.4,0.2-0.7,0.5-1.1,0.7l-0.2,0.1c-0.7,0.4-1.3,0.9-2,1.4
		c-1,0.7-2,1.4-2.9,2.2c-2.6,1.9-5.1,3.9-7.6,6c-0.9,0.7-1.7,1.5-2.6,2.2c-3.1,2.7-6.2,5.5-9.2,8.6c-0.5,0.4-0.9,0.9-1.3,1.3
		c-0.9,0.9-1.8,1.8-2.6,2.6c-0.6,0.6-1.1,1.1-1.5,1.6c-2.8,3-5.6,6.2-8.2,9.4c-1,1.2-1.9,2.4-2.9,3.6c-0.7,0.9-1.4,1.9-2.1,2.8
		c-1.2,1.5-2.3,3.1-3.4,4.7c-0.9,1.2-1.7,2.4-2.5,3.6l-0.1,0.2c-0.6,0.9-1.2,1.9-1.8,2.8c-0.4,0.6-0.8,1.3-1.2,1.9
		c-0.7,1.1-1.3,2.1-2,3.3l-0.3,0.5c-0.5,0.8-0.9,1.5-1.4,2.3l-1.6,2.9c-5,9.1-9.3,18.7-12.7,28.5l-0.2,0.5v0
		c-0.6,1.8-1.2,3.6-1.8,5.4l-0.1,0.4c-0.6,1.8-1.1,3.6-1.6,5.5l-0.2,0.9c-0.5,1.7-0.9,3.4-1.4,5.2c-0.1,0.4-0.2,0.9-0.3,1.4
		c-0.4,1.5-0.7,3-1,4.5c-0.1,0.4-0.2,0.8-0.2,1.2c-0.1,0.4-0.1,0.7-0.2,1.1l-0.2,0.8c-0.2,1-0.4,2-0.6,3c-0.2,1-0.3,2-0.5,3
		l-0.2,1.2c-0.1,0.7-0.2,1.3-0.3,2c-0.2,1.5-0.4,3.1-0.6,4.6l-0.2,1.6c-0.6,5.2-0.9,10.8-1.1,16.5l0,0.8c0,0.5-0.1,1-0.1,1.5l0,0.3
		c0,0.7,0,1.3,0,2c0,21.3,3.5,42.2,10.3,62.1c1.8,5.3,3.7,10.1,5.9,15l2.5,5.5l32.3-32.3l15.9,15.9c33.1,33.1,77.2,51.4,124,51.4h0
		c46.8,0,90.9-18.2,124-51.4l15.9-15.9l32.2,32.3l2.5-5.5c10.7-24.3,16.2-50.2,16.2-77C474.3,266.1,474.3,265.4,474.3,264.8z"/>
	<path id="XMLID_89_" fill="#EFEFEF" d="M163.8,325.6c32,32,74.4,49.6,119.6,49.6c45.2,0,87.7-17.6,119.6-49.5l14.5-14.5
		L283.5,177.1L149.4,311.1L163.8,325.6z"/>
	<path id="XMLID_88_" fill="#FFEC00" d="M111,326.8c0.9,2.7,1.9,5.4,3,8.1l23.7-23.7L101,274.5C101.8,292.5,105.1,310,111,326.8z"/>
	<path id="XMLID_87_" fill="#FFBC00" d="M123.1,179.4c-0.5,0.9-1,1.9-1.5,2.9c-1.2,2.3-2.3,4.5-3.3,6.7c-0.9,1.8-1.8,3.8-2.9,6.4
		v0.7l-0.5,0.5c-0.7,1.6-1.3,3.2-1.9,4.8l-0.2,0.4c-0.6,1.7-1.3,3.4-1.9,5.1l-0.1,0.3c-0.6,1.7-1.2,3.5-1.7,5.2l-0.1,0.5
		c-0.6,1.7-1,3.4-1.5,5.1l-0.4,1.3c-0.4,1.4-0.8,2.9-1.1,4.3c-0.1,0.4-0.2,0.7-0.2,1.1c-0.4,1.6-0.7,3.1-1.1,4.7l-0.3,1.5
		c-0.3,1.4-0.6,2.8-0.8,4.2c-0.1,0.5-0.1,0.8-0.2,1.2l-0.1,0.6c-0.2,1.3-0.4,2.6-0.6,3.9l-0.3,2.2c-0.2,1.2-0.3,2.4-0.5,3.6
		l-0.4,3.7c-0.1,0.7-0.1,1.4-0.2,2.1c-0.1,0.6-0.1,1.2-0.1,1.8l-0.1,2c0,0.7-0.1,1.4-0.1,2.1l-0.1,3c0,0.4,0,0.6,0,0.9l0,0.4
		c0,0,0,0,0,0.1l42.6,42.6l57.4-57.4C169.5,232.8,142.2,208.7,123.1,179.4z"/>
	<path id="XMLID_81_" fill="#FC6D26" d="M251.7,131.6c0.6-0.5,1.2-0.9,1.8-1.4l0.3-0.2c0.6-0.4,1.2-0.9,1.9-1.3
		c0.7-0.5,1.5-0.9,2.3-1.4l0.5-0.3c0.5-0.3,0.9-0.6,1.4-0.8c0.8-0.4,1.6-0.8,2.4-1.2c0.3-0.1,0.6-0.3,0.8-0.4
		c0.4-0.2,0.8-0.4,1.3-0.6c0.8-0.3,1.7-0.6,2.6-0.9l0.3-0.1c0.6-0.2,1.1-0.4,1.7-0.6c0.7-0.2,1.5-0.4,2.3-0.6l1.1-0.3
		c0.5-0.1,1-0.3,1.5-0.3c1-0.2,2.1-0.3,3.1-0.5c0.2,0,0.4-0.1,0.5-0.1c0.4-0.1,0.8-0.1,1.2-0.2c1.7-0.2,3.3-0.2,4.9-0.2
		s3.3,0.1,5,0.2c0.3,0,0.7,0.1,1.1,0.2c0.2,0,0.3,0.1,0.5,0.1c1.2,0.1,2.3,0.3,3.3,0.5c0.4,0.1,0.8,0.2,1.3,0.3l1.1,0.3
		c0.8,0.2,1.6,0.4,2.4,0.6c0.4,0.1,0.9,0.3,1.3,0.4l1.2,0.4c0.7,0.2,1.4,0.5,2.1,0.8c0.6,0.2,1.2,0.5,1.8,0.8l0.2,0.1
		c0.8,0.3,1.6,0.7,2.4,1.1c0.6,0.3,1.2,0.7,1.8,1l0.5,0.3c0.7,0.4,1.3,0.8,1.9,1.2c0.5,0.3,0.9,0.6,1.3,0.9l0.9,0.7
		c0.6,0.4,1.2,0.9,1.8,1.4c0.3,0.3,0.7,0.6,1,0.9l35.2-35.2l-1.7-0.7c-0.7-0.3-1.4-0.5-2.1-0.8c-0.6-0.2-1.1-0.4-1.6-0.6l-7.2-2.5
		c-0.6-0.2-1.1-0.3-1.6-0.5l-2.9-0.9c-0.7-0.2-1.5-0.4-2.3-0.6l-0.4-0.1c-0.6-0.2-1.1-0.3-1.7-0.5l-2.5-0.6
		c-0.7-0.2-1.4-0.4-2.1-0.5l-2.5-0.6c-0.7-0.1-1.4-0.3-2.2-0.5l-0.3-0.1c-0.7-0.1-1.3-0.3-2-0.4l-4.7-0.9c-0.6-0.1-1.2-0.2-1.9-0.3
		l-2.8-0.4c-0.7-0.1-1.4-0.2-2.1-0.3c-0.6-0.1-1.2-0.1-1.7-0.2l-5.7-0.6c-0.6-0.1-1.3-0.1-1.9-0.2c-1-0.1-1.9-0.1-2.8-0.2l-0.8-0.1
		c-0.4,0-0.7-0.1-1.1-0.1c-0.8,0-1.5-0.1-2.1-0.1l-2.7-0.1c-3.1-0.1-6.3-0.1-9.5,0l-2.6,0.1c-0.7,0-1.4,0-2.1,0.1
		c-0.5,0-0.8,0-1.2,0.1l-0.7,0c-1,0-1.9,0.1-2.8,0.2c-0.6,0-1.2,0.1-1.8,0.1l-5.9,0.6c-0.6,0.1-1.1,0.1-1.7,0.2
		c-0.7,0.1-1.3,0.2-1.9,0.3l-3,0.4c-0.7,0.1-1.3,0.2-2,0.3l-4.6,0.8c-0.7,0.1-1.4,0.3-2,0.4l-0.7,0.2c-0.6,0.1-1.3,0.3-1.9,0.4
		l-2.4,0.5c-0.6,0.1-1.2,0.3-1.9,0.5l-2.7,0.7c-0.6,0.1-1.1,0.3-1.7,0.5l-0.3,0.1c-0.9,0.2-1.7,0.4-2.4,0.7l-2.8,0.9
		c-0.5,0.2-1,0.3-1.5,0.5c-0.8,0.2-1.4,0.5-2.1,0.7l-2.4,0.8c-0.7,0.2-1.4,0.5-2,0.7l-1,0.3c-0.5,0.2-0.9,0.3-1.4,0.5l-3.8,1.5
		l35.2,35.2C251,132.2,251.3,131.9,251.7,131.6z"/>
	<path id="XMLID_78_" fill="#FF9100" d="M207.1,241.7l37.7-37.6c-7.8-9.2-12.1-20.7-12.1-32.9c0-6.6,1.2-13,3.6-19
		c1.9-4.7,4.5-9.1,7.8-13.1l0.2-0.3c0.1-0.2,0.3-0.3,0.4-0.5l0,0l-37.6-37.5c-1.7,0.8-3.3,1.6-5,2.4l-0.5,0.3
		c-0.2,0.1-0.5,0.2-0.7,0.4l-2,1c-1,0.6-2.2,1.1-3.3,1.8c-0.3,0.2-0.7,0.4-1.1,0.6l-2.1,1.2c-0.4,0.2-0.7,0.4-1.1,0.6
		c-1.3,0.7-2.4,1.4-3.6,2.2l-1.5,0.9c-1,0.6-2,1.3-3,1.9l-1.6,1.1c-0.6,0.4-1.2,0.8-1.8,1.2c-0.5,0.3-0.9,0.6-1.4,0.9
		c-0.4,0.3-0.8,0.5-1,0.8c-0.5,0.3-0.9,0.7-1.4,1l-0.3,0.2c-0.9,0.6-1.7,1.3-2.6,1.9c-0.5,0.4-1,0.7-1.4,1.1l-3,2.3
		c-0.5,0.4-1,0.8-1.5,1.3c-0.2,0.2-0.3,0.2-0.4,0.3c-1.4,1.1-2.9,2.4-4.3,3.7l-0.4,0.3c-0.4,0.4-0.8,0.7-1.2,1.1
		c-0.5,0.5-1,0.9-1.4,1.3l-1.3,1.2c-1.2,1.1-2.5,2.4-3.8,3.7c-0.8,0.8-1.6,1.5-2.3,2.3c-0.9,0.9-1.7,1.8-2.6,2.8l-1.6,1.6
		c-0.3,0.3-0.6,0.7-0.9,1.1c-0.4,0.4-0.7,0.7-0.9,1.1c-0.4,0.5-0.8,1-1.3,1.5c-0.4,0.4-0.8,0.9-1.2,1.3c-0.4,0.5-0.9,1-1.3,1.5
		c-0.7,0.8-1.3,1.7-2,2.5c-0.6,0.7-1,1.3-1.5,1.9c-0.4,0.6-0.8,1.1-1.2,1.6c-0.1,0.2-0.3,0.5-0.5,0.7l-2,2.8
		c-0.7,0.9-1.3,1.8-1.9,2.7c-0.3,0.5-0.6,0.9-0.9,1.3l-0.1,0.2c-0.4,0.5-0.7,1-1,1.5c-0.4,0.6-0.8,1.2-1.2,1.8
		c-0.8,1.3-1.6,2.5-2.4,3.9C146.6,201.9,174.6,226.8,207.1,241.7z"/>
	<path id="XMLID_77_" fill="#FFBC00" d="M465.9,260.9c0-0.9,0-1.8-0.1-2.7c-0.1-1.2-0.1-2.5-0.2-3.7c0-0.4-0.1-0.8-0.1-1.2
		c0-0.4,0-0.7-0.1-1.1l0-0.3c-0.1-1.2-0.2-2.5-0.4-3.7l-0.2-2c-0.2-1.4-0.3-2.8-0.5-4.2l-0.2-1.7c-0.2-1.5-0.4-2.9-0.7-4.4l-0.1-0.6
		c0-0.3-0.1-0.5-0.1-0.8c-0.3-1.5-0.6-3-0.9-4.4l-0.1-0.3c-0.1-0.5-0.2-0.9-0.2-1.3c-0.3-1.6-0.7-3.1-1-4.6l-0.1-0.5
		c0-0.2-0.1-0.4-0.2-0.6c-0.4-1.5-0.7-2.8-1.1-4.1l-0.5-1.7c-0.3-1.1-0.6-2.1-0.9-3.1l-0.4-1.4c0-0.1-0.1-0.4-0.2-0.6
		c0-0.2-0.1-0.3-0.1-0.5c-0.5-1.5-1-3-1.5-4.4l-0.4-1.4c-0.5-1.3-1-2.7-1.5-4.1l-0.2-0.6c-0.1-0.2-0.2-0.5-0.3-0.7
		c-0.5-1.4-1.1-2.6-1.6-3.9l-0.3-0.7c-0.1-0.3-0.2-0.6-0.4-0.9c-0.4-1-0.8-1.9-1.2-2.8l-1.2-2.8c-0.3-0.6-0.6-1.3-1-2l-1.1-2.3
		c-0.2-0.3-0.3-0.7-0.5-1c-0.6-1.2-1.2-2.2-1.7-3.3c-0.2-0.3-0.3-0.6-0.4-0.8c-0.1-0.2-0.2-0.3-0.2-0.4
		c-19,29.3-46.3,53.5-77.8,68.6l57.4,57.4l42.6-42.6c0-0.4,0-0.7,0-1L465.9,260.9z"/>
	<path id="XMLID_76_" fill="#FF5500" d="M314.9,142.6c-0.1-0.2-0.3-0.4-0.5-0.5l-0.9-0.9l-0.9-0.9c-0.5-0.5-0.9-0.9-1.4-1.3
		c-0.4-0.3-0.8-0.7-1.2-1c-0.5-0.4-0.9-0.7-1.3-1l-1.3-0.9c-2.6-1.7-5.3-3.2-8.2-4.4c-0.5-0.2-0.9-0.4-1.4-0.5
		c-0.7-0.3-1.4-0.5-2.1-0.7c-1.2-0.3-2.4-0.7-3.9-1c-2.7-0.5-5.5-0.8-8.4-0.8c-11,0-21.5,4.2-29.4,11.8l-0.7,0.7
		c-0.2,0.2-0.4,0.4-0.6,0.6c-0.3,0.3-0.5,0.6-0.7,0.8c-0.2,0.2-0.4,0.4-0.5,0.6c-3.4,3.9-6.1,8.3-7.9,13c-0.2,0.6-0.4,1.2-0.6,1.8
		c-0.4,1.3-0.8,2.5-1,3.7c-0.1,0.6-0.3,1.2-0.4,1.8c-0.1,0.6-0.2,1.1-0.3,1.6c-0.1,0.6-0.1,1-0.2,1.6l-0.1,0.7
		c-0.1,1.3-0.2,2.6-0.2,3.9c0,2.4,0.2,4.7,0.6,6.9c0.1,0.5,0.1,0.9,0.2,1.3l0.1,0.3c0.1,0.5,0.2,1,0.3,1.5c0.2,0.8,0.3,1.4,0.5,2
		c0.1,0.4,0.3,0.9,0.4,1.3l0,0l0.2,0.7c0,0.1,0.1,0.2,0.1,0.3l0,0c0.4,1.1,0.8,2.2,1.4,3.4l0.2,0.4c0.2,0.5,0.5,1,0.7,1.4
		c1.4,2.7,3.1,5.2,5,7.5l32.8-32.8l32.8,32.8c6.3-7.6,9.7-17.1,9.7-27c0-1.3-0.1-2.6-0.2-3.9l-0.1-1c0-0.5-0.1-0.9-0.2-1.3
		c-0.1-0.5-0.2-1-0.2-1.5c-0.1-0.5-0.2-0.9-0.3-1.3l-0.1-0.5c-0.3-1.3-0.6-2.5-1.1-3.9c-0.2-0.6-0.3-1.1-0.6-1.6
		c-1.9-4.9-4.5-9.3-7.9-13.1C315.2,143,315.1,142.8,314.9,142.6z"/>
	<path id="XMLID_74_" fill="#FF9100" d="M322.9,139.2l0.1,0.2c0.4,0.5,0.8,1,1.2,1.5l0.9,1.2c0.3,0.4,0.6,0.9,0.9,1.3
		c0.4,0.6,0.7,1.2,1.1,1.8l0.3,0.5c0.1,0.3,0.3,0.5,0.4,0.7c0.3,0.4,0.5,0.9,0.8,1.3c0.3,0.6,0.6,1.2,0.9,1.9l0.5,1.1
		c0.2,0.5,0.5,0.9,0.6,1.4c0.3,0.8,0.6,1.7,0.9,2.6l0.1,0.2c0.2,0.6,0.4,1.2,0.6,1.8c0.2,0.7,0.4,1.5,0.6,2.2l0.3,1.1
		c0.1,0.5,0.2,1,0.3,1.5c0.2,1,0.4,2.1,0.5,3.1c0,0.3,0.1,0.5,0.1,0.7c0,0.3,0.1,0.6,0.1,0.9c0.2,1.8,0.2,3.5,0.2,5.1
		c0,12.2-4.3,23.7-12.1,32.9l37.7,37.6c32.5-15,60.5-39.9,79.3-70.4l-2.4-3.9c-0.1-0.1-0.2-0.3-0.3-0.5c-0.1-0.1-0.1-0.2-0.2-0.3
		l-0.6-0.9c-0.3-0.4-0.5-0.8-0.7-1.1l-0.6-0.9l0,0c0,0,0,0,0,0l0-0.1c-0.2-0.3-0.4-0.6-0.6-0.9c-0.3-0.5-0.6-0.9-0.9-1.3
		c0,0-0.1-0.1-0.1-0.2l-0.5-0.7c-0.1-0.1-0.1-0.2-0.2-0.2l-1.7-2.2l-0.7-0.9c-0.3-0.5-0.7-1-1.1-1.4l-0.2-0.3
		c-0.6-0.8-1.2-1.5-1.8-2.3l-0.5-0.6c-0.3-0.4-0.6-0.8-0.9-1.1c-0.3-0.4-0.7-0.8-1-1.2l-0.3-0.4c-0.1-0.2-0.3-0.4-0.5-0.6l-0.4-0.5
		c-0.5-0.6-0.9-1.1-1.4-1.6l-0.6-0.7c-0.5-0.5-0.9-1.1-1.4-1.6l-0.2-0.2c-0.6-0.7-1.2-1.3-1.8-2l-0.6-0.7c-0.3-0.3-0.7-0.7-1-1.1
		c-0.4-0.4-0.8-0.8-1.2-1.2l-0.2-0.2c-0.5-0.5-1-1-1.5-1.5l-1.8-1.8c-0.4-0.4-0.8-0.8-1.3-1.3l-0.1,0l-0.3-0.3
		c-0.2-0.2-0.4-0.4-0.6-0.6l-2.6-2.4c-0.7-0.6-1.3-1.2-1.9-1.7c-0.3-0.3-0.5-0.5-0.7-0.6l-3.7-3.1c-0.3-0.3-0.6-0.5-0.8-0.7
		c-0.1-0.1-0.2-0.2-0.3-0.3c-0.6-0.5-1.2-1-1.8-1.5l-1.5-1.2c-0.6-0.5-1.3-1-1.9-1.5c0,0-0.2-0.2-0.2-0.2c-0.9-0.6-1.8-1.3-2.6-1.9
		l-1.3-0.9c-0.3-0.2-0.5-0.4-0.8-0.6l-0.3-0.2c0,0-0.1,0-0.1-0.1l-0.7-0.5c-0.3-0.2-0.6-0.4-0.9-0.6l-1.7-1.1
		c-1-0.7-1.9-1.3-2.9-1.9c-0.2-0.1-0.3-0.2-0.4-0.3l-3.7-2.3c-0.6-0.4-1.2-0.7-1.8-1.1c-0.2-0.1-0.4-0.2-0.5-0.3
		c-0.4-0.2-0.8-0.4-1.2-0.7c-0.5-0.3-1-0.5-1.5-0.8c-0.8-0.4-1.5-0.9-2.3-1.3c-0.3-0.2-0.5-0.3-0.7-0.4l-0.4-0.2
		c-0.4-0.2-0.7-0.4-1-0.5c-0.5-0.3-0.8-0.4-1-0.5l-0.2-0.1c-0.1,0-0.2-0.1-0.3-0.1c-0.3-0.1-0.5-0.2-0.6-0.3
		c-0.6-0.3-1.1-0.6-1.7-0.8c-0.5-0.2-0.8-0.4-1.2-0.6l-0.3-0.2c-0.7-0.4-1.5-0.7-2.2-1l-1.6-0.8l-37.6,37.5
		C322.4,138.6,322.6,138.9,322.9,139.2z"/>
	<path id="XMLID_73_" fill="#FFEC00" d="M452.9,334.8c7.8-19.2,12.1-39.5,13-60.3l-36.7,36.6L452.9,334.8z"/>
</g>
<g id="XMLID_93_">
	<path id="XMLID_154_" fill="#3A3A3A" d="M33,489c-5.9,0-11.2-1.4-15.6-4.1c-4.5-2.8-8-6.6-10.4-11.5c-2.5-4.9-3.7-10.4-3.7-16.4
		c0-6.2,1.3-11.8,3.9-16.7c2.6-4.8,6.2-8.6,10.8-11.4c4.6-2.7,9.9-4.1,15.7-4.1c6.5,0,11.9,1,15.8,3.1c3.9,2,5.8,4.5,5.8,7.8
		c0,1.6-0.5,3-1.4,4.2c-0.9,1.2-2.1,1.7-3.5,1.7c-1.2,0-2.1-0.2-2.8-0.5c-0.7-0.3-1.5-0.8-2.2-1.3c-0.8-0.6-1.5-1.1-2.3-1.5
		c-0.9-0.4-2-0.8-3.6-1.1c-1.6-0.3-2.9-0.5-3.8-0.5c-6,0-10.8,1.9-14.2,5.7c-3.4,3.7-5.1,8.7-5.1,14.7c0,5.8,1.7,10.6,5.2,14.4
		c3.5,3.8,8,5.8,13.4,5.8c3.9,0,6.9-0.5,8.8-1.5c0.5-0.2,1.1-0.7,2-1.3c0.8-0.6,1.5-1,2.2-1.3c0.6-0.3,1.4-0.4,2.4-0.4
		c1.8,0,3.2,0.6,4.2,1.7c1,1.1,1.6,2.6,1.6,4.4c0,1.7-1,3.3-3.1,4.8c-2.1,1.6-5,2.9-8.5,3.8C40.9,488.6,37,489,33,489z"/>
	<path id="XMLID_156_" fill="#3A3A3A" d="M86.8,489c-5.8,0-11.2-1.4-15.9-4c-4.7-2.7-8.5-6.5-11.3-11.4c-2.8-4.9-4.2-10.4-4.2-16.6
		c0-6.1,1.4-11.7,4.2-16.6c2.8-4.9,6.6-8.7,11.3-11.4c4.7-2.7,10.1-4.1,15.9-4.1c5.7,0,11.1,1.4,15.9,4.1c4.8,2.7,8.6,6.6,11.4,11.4
		c2.8,4.9,4.2,10.4,4.2,16.6c0,6.1-1.4,11.7-4.2,16.6c-2.8,4.9-6.6,8.7-11.4,11.4C97.8,487.7,92.5,489,86.8,489z M86.8,436.7
		c-3.4,0-6.5,0.9-9.3,2.6c-2.8,1.7-5,4.1-6.7,7.2c-1.6,3.1-2.5,6.6-2.5,10.6c0,3.9,0.8,7.4,2.5,10.5c1.6,3.1,3.9,5.5,6.7,7.2
		c2.8,1.7,5.9,2.6,9.3,2.6s6.5-0.9,9.3-2.6c2.8-1.7,5-4.1,6.7-7.2c1.6-3.1,2.5-6.6,2.5-10.5c0-3.9-0.8-7.5-2.5-10.6
		c-1.6-3.1-3.9-5.5-6.7-7.2C93.3,437.6,90.1,436.7,86.8,436.7z"/>
	<path id="XMLID_159_" fill="#3A3A3A" d="M129.1,487.9c-1.9,0-3.4-0.6-4.6-1.9c-1.2-1.3-1.8-2.8-1.8-4.7v-48.5
		c0-1.9,0.6-3.4,1.8-4.7c1.2-1.3,2.7-1.9,4.6-1.9c1.9,0,3.4,0.6,4.6,1.9c1.2,1.3,1.8,2.8,1.8,4.7v3.7l1.1-1.9
		c1.7-3.1,4.3-5.5,7.5-7.1c3.3-1.6,6.8-2.5,10.6-2.5c2.2,0,4.1,0.6,5.6,1.9c1.5,1.2,2.2,2.6,2.2,4.3c0,2.3-0.6,4-1.7,5.1
		c-1.2,1.1-2.5,1.7-4.1,1.7c-1.1,0-2.4-0.3-3.8-0.8c-0.3-0.1-0.8-0.2-1.6-0.5c-0.9-0.2-1.8-0.4-2.8-0.4c-2.1,0-4.2,0.7-6.2,2
		c-2,1.3-3.6,3.3-4.8,5.9c-1.2,2.6-1.9,5.8-1.9,9.4v27.9c0,1.9-0.6,3.4-1.8,4.7C132.5,487.3,131,487.9,129.1,487.9z"/>
	<path id="XMLID_161_" fill="#3A3A3A" d="M191,489c-6.5,0-12.2-1.4-16.9-4c-4.8-2.7-8.5-6.4-11.1-11.1c-2.6-4.7-3.9-10.1-3.9-16
		c0-6.6,1.4-12.5,4.2-17.5c2.8-5,6.4-8.8,11-11.5c4.5-2.6,9.4-4,14.5-4c5,0,9.9,1.4,14.3,4.1c4.5,2.8,8.1,6.5,10.8,11.2
		c2.7,4.7,4,9.8,4,15.2c-0.1,1.7-0.7,3.1-2,4.1c-1.3,1.1-2.8,1.6-4.6,1.6h-39.5l0.1,0.7c1,4.7,3.2,8.5,6.7,11.2
		c3.5,2.7,7.4,4.1,11.8,4.1c3.3,0,5.8-0.3,7.7-0.9c1.9-0.6,3.3-1.2,4.4-1.9c1-0.7,1.8-1.1,2.2-1.3c1.3-0.6,2.5-1,3.7-1
		c1.5,0,2.8,0.5,3.8,1.6c1.1,1.1,1.6,2.3,1.6,3.7c0,1.9-1,3.7-3.1,5.3c-2.1,1.8-5,3.3-8.6,4.5C198.4,488.4,194.7,489,191,489z
		 M188.6,436.7c-9.4,0-15,4.5-16.7,13.3l-0.1,0.7h32.1v-1.4c-0.3-3.5-2-6.5-5-8.9C195.9,438,192.4,436.7,188.6,436.7z"/>
	<path id="XMLID_164_" fill="#3A3A3A" d="M249.8,489c-5.3,0-10.1-1.4-14.4-4.1c-4.3-2.7-7.7-6.5-10.2-11.4
		c-2.5-4.8-3.8-10.4-3.8-16.5c0-6.2,1.2-11.7,3.7-16.6c2.4-4.9,5.8-8.7,10.1-11.4c4.2-2.7,9-4.1,14.1-4.1c3.7,0,7.1,0.7,10.4,2
		c3.2,1.3,6,3.1,8.2,5.1l1,0.9v-24.4c0-1.9,0.6-3.4,1.8-4.7c1.2-1.3,2.8-1.9,4.6-1.9c1.9,0,3.4,0.6,4.6,1.8c1.2,1.2,1.8,2.8,1.8,4.8
		v72.6c0,1.9-0.6,3.4-1.8,4.7c-1.2,1.3-2.8,1.9-4.6,1.9c-1.9,0-3.4-0.6-4.6-1.8c-1.2-1.2-1.8-2.8-1.9-4.7l-0.1-1.5l-1,1.1
		c-1.9,2.2-4.5,4.1-7.7,5.7C256.8,488.3,253.4,489,249.8,489z M251.6,436.7c-5.2,0-9.5,2-12.8,5.8c-3.3,3.8-5,8.7-5,14.5
		c0,5.8,1.6,10.6,4.9,14.4c3.3,3.8,7.6,5.8,12.8,5.8s9.6-1.9,12.9-5.8c3.3-3.8,5-8.7,5-14.4c0-5.8-1.7-10.6-5-14.5
		C261.1,438.7,256.8,436.7,251.6,436.7z"/>
	<path id="XMLID_167_" fill="#3A3A3A" d="M317.6,489c-5.8,0-11.2-1.4-15.9-4c-4.7-2.7-8.5-6.5-11.3-11.4c-2.8-4.9-4.2-10.4-4.2-16.6
		c0-6.1,1.4-11.7,4.2-16.6c2.8-4.9,6.6-8.7,11.3-11.4c4.7-2.7,10.1-4.1,15.9-4.1c5.7,0,11.1,1.4,15.9,4.1c4.8,2.7,8.6,6.6,11.4,11.4
		c2.8,4.9,4.2,10.4,4.2,16.6c0,6.1-1.4,11.7-4.2,16.6c-2.8,4.9-6.6,8.7-11.4,11.4C328.7,487.7,323.4,489,317.6,489z M317.6,436.7
		c-3.4,0-6.5,0.9-9.3,2.6c-2.8,1.7-5,4.1-6.7,7.2c-1.6,3.1-2.5,6.6-2.5,10.6c0,3.9,0.8,7.5,2.5,10.5c1.6,3.1,3.9,5.5,6.7,7.2
		c2.8,1.7,5.9,2.6,9.3,2.6c3.4,0,6.5-0.9,9.3-2.6c2.8-1.7,5-4.1,6.7-7.2c1.6-3.1,2.5-6.6,2.5-10.5c0-3.9-0.8-7.5-2.5-10.6
		c-1.7-3.1-3.9-5.5-6.7-7.2C324.1,437.6,321,436.7,317.6,436.7z"/>
	<path id="XMLID_170_" fill="#3A3A3A" d="M382.4,489c-5.9,0-11.2-1.4-15.6-4.1c-4.5-2.8-8-6.6-10.4-11.5c-2.5-4.9-3.7-10.4-3.7-16.4
		c0-6.2,1.3-11.8,3.9-16.7c2.6-4.8,6.2-8.6,10.8-11.4c4.6-2.7,9.9-4.1,15.7-4.1c6.5,0,11.9,1,15.8,3.1c3.9,2,5.8,4.5,5.8,7.8
		c0,1.6-0.5,3-1.4,4.2c-0.9,1.2-2.1,1.7-3.5,1.7c-1.2,0-2.1-0.2-2.8-0.5c-0.7-0.3-1.5-0.8-2.2-1.3c-0.8-0.6-1.5-1.1-2.2-1.5
		c-0.9-0.4-2-0.8-3.6-1.1c-1.6-0.3-2.8-0.5-3.8-0.5c-6,0-10.8,1.9-14.2,5.7c-3.4,3.7-5.1,8.7-5.1,14.7c0,5.8,1.7,10.6,5.2,14.4
		c3.5,3.8,8,5.8,13.4,5.8c3.9,0,6.9-0.5,8.8-1.5c0.5-0.2,1.2-0.7,2-1.3c0.8-0.6,1.5-1,2.2-1.3c0.6-0.3,1.4-0.4,2.4-0.4
		c1.8,0,3.2,0.6,4.2,1.7c1,1.1,1.6,2.6,1.6,4.4c0,1.7-1,3.3-3.1,4.8c-2.1,1.6-5,2.9-8.5,3.8C390.2,488.6,386.4,489,382.4,489z"/>
	<path id="XMLID_172_" fill="#3A3A3A" d="M415.9,487.9c-1.9,0-3.4-0.6-4.6-1.9c-1.2-1.3-1.8-2.8-1.8-4.7v-72.6
		c0-1.9,0.6-3.4,1.8-4.7c1.2-1.3,2.8-1.9,4.6-1.9c1.9,0,3.4,0.6,4.6,1.9c1.2,1.3,1.8,2.8,1.8,4.7v44.8l26.1-25.3
		c1.4-1.4,3-2.1,4.8-2.1c1.6,0,3,0.7,4.2,2c1.3,1.3,1.9,2.7,1.9,4c0,1.7-0.9,3.3-2.6,4.9l-18.2,16.7l21,22.8
		c1.4,1.5,2.1,3.1,2.1,4.9c0,1.8-0.7,3.3-2.1,4.5c-1.4,1.2-2.9,1.9-4.5,1.9c-1.9,0-3.4-0.7-4.7-2.2l-21.6-22.8l-6.4,5.8v12.6
		c0,1.9-0.6,3.4-1.8,4.7C419.3,487.3,417.8,487.9,415.9,487.9z"/>
	<path id="XMLID_174_" fill="#3A3A3A" d="M492.5,489c-6.5,0-12.2-1.4-16.9-4c-4.8-2.7-8.5-6.4-11.1-11.1c-2.6-4.7-3.9-10.1-3.9-16
		c0-6.6,1.4-12.5,4.2-17.5c2.8-5,6.4-8.8,11-11.5c4.5-2.6,9.4-4,14.5-4c5,0,9.9,1.4,14.3,4.1c4.5,2.8,8.1,6.5,10.8,11.2
		c2.7,4.7,4,9.8,4,15.2c-0.1,1.7-0.7,3.1-2,4.1c-1.3,1.1-2.8,1.6-4.6,1.6h-39.5l0.1,0.7c1,4.7,3.2,8.5,6.7,11.2
		c3.5,2.7,7.4,4.1,11.8,4.1c3.3,0,5.8-0.3,7.7-0.9c1.9-0.6,3.3-1.2,4.4-1.9c1.1-0.7,1.8-1.1,2.2-1.3c1.3-0.6,2.5-1,3.7-1
		c1.5,0,2.8,0.5,3.8,1.6c1.1,1.1,1.6,2.3,1.6,3.7c0,1.9-1,3.7-3.1,5.3c-2.1,1.8-5,3.3-8.6,4.5C499.9,488.4,496.2,489,492.5,489z
		 M490.2,436.7c-9.4,0-15,4.5-16.7,13.3l-0.1,0.7h32.1v-1.4c-0.3-3.5-2-6.5-5-8.9C497.4,438,494,436.7,490.2,436.7z"/>
	<path id="XMLID_178_" fill="#3A3A3A" d="M530.3,487.9c-1.9,0-3.4-0.6-4.6-1.9c-1.2-1.3-1.8-2.8-1.8-4.7v-48.5
		c0-1.9,0.6-3.4,1.8-4.7c1.2-1.3,2.7-1.9,4.6-1.9c1.9,0,3.4,0.6,4.6,1.9c1.2,1.3,1.8,2.8,1.8,4.7v3.7l1.1-1.9
		c1.7-3.1,4.3-5.5,7.5-7.1c3.3-1.6,6.8-2.5,10.6-2.5c2.2,0,4.1,0.6,5.6,1.9c1.5,1.2,2.2,2.6,2.2,4.3c0,2.3-0.6,4-1.7,5.1
		c-1.2,1.1-2.5,1.7-4.1,1.7c-1.1,0-2.4-0.3-3.8-0.8c-0.3-0.1-0.8-0.2-1.6-0.5c-0.9-0.2-1.8-0.4-2.8-0.4c-2.1,0-4.2,0.7-6.2,2
		c-2,1.3-3.6,3.3-4.8,5.9c-1.2,2.6-1.9,5.8-1.9,9.4v27.9c0,1.9-0.6,3.4-1.8,4.7C533.7,487.3,532.1,487.9,530.3,487.9z"/>
</g>
</svg>
