<?xml version="1.0" encoding="utf-8"?>
<!-- Generator: Adobe Illustrator 19.0.0, SVG Export Plug-In . SVG Version: 6.00 Build 0)  -->
<svg version="1.1" id="Layer_1" xmlns="http://www.w3.org/2000/svg" xmlns:xlink="http://www.w3.org/1999/xlink" x="0px" y="0px"
	 viewBox="0 0 566.9 566.9" enable-background="new 0 0 566.9 566.9" xml:space="preserve">
<g id="XMLID_120_">
	<g id="XMLID_71_" opacity="0.1">
		<path id="XMLID_72_" d="M562.5,298.7V298c-0.6-48.7-14-96.5-38.7-138.5c-0.1-0.2-0.2-0.4-0.4-0.7c-3.8-6.3-7.8-12.4-11.9-18.3
			c-4.2-6-8.7-11.8-13.1-17.2c-4.6-5.6-9.5-11-14.4-16.1c-21.5-22.3-46.6-40.7-74.6-54.8c-1.6-0.8-3.5-1.8-5.6-2.7l0.1-0.1
			l-15.2-6.8v0.2c-22.1-9-45.3-15.2-69-18.3c-23.7-3.1-49-3.1-72.7,0c-25.9,3.4-51.3,10.4-75.4,20.9l-0.8,0.4
			c-0.5,0.2-1,0.5-1.5,0.7c-0.2,0.1-0.5,0.2-0.8,0.3c-7.3,3.3-14.6,7-22.5,11.4c-3.8,2.2-7.9,4.5-11.9,7.1c-2,1.2-4,2.5-5.9,3.8
			c-1.4,0.9-2.9,1.9-4.3,2.9c-0.5,0.3-1.1,0.7-1.6,1.1l-0.3,0.2c-1,0.6-1.9,1.3-2.9,2c-1.4,1-2.9,2.1-4.3,3.2
			c-3.7,2.8-7.5,5.8-11.1,8.8c-1.3,1.1-2.5,2.2-3.8,3.2c-4.5,3.9-9,8.1-13.4,12.5c-0.7,0.7-1.4,1.3-1.9,1.9
			c-1.3,1.3-2.6,2.6-3.7,3.9c-0.8,0.8-1.6,1.6-2.3,2.4c-4.1,4.4-8.2,9.1-12,13.8c-1.4,1.7-2.8,3.5-4.2,5.3c-1,1.4-2.1,2.7-3,4.1
			c-1.7,2.3-3.4,4.5-4.9,6.8c-1.2,1.8-2.4,3.5-3.6,5.3l-0.2,0.3c-0.9,1.4-1.8,2.8-2.7,4.1c-0.6,0.9-1.2,1.9-1.7,2.7
			c-1,1.6-2,3.1-2.9,4.8l-0.4,0.7c-0.7,1.1-1.3,2.3-2,3.4l-2.4,4.2c-7.3,13.4-13.6,27.4-18.6,41.6l-0.3,0.7v0
			c-0.9,2.6-1.8,5.2-2.6,7.8l-0.2,0.7c-0.8,2.7-1.6,5.3-2.4,8l-0.3,1.3c-0.7,2.5-1.3,5-2,7.6c-0.1,0.6-0.3,1.3-0.5,2
			c-0.5,2.2-1,4.5-1.5,6.6c-0.1,0.6-0.2,1.2-0.4,1.8c-0.1,0.5-0.2,1-0.3,1.6l-0.2,1.1c-0.3,1.4-0.6,2.9-0.9,4.4
			c-0.2,1.4-0.5,2.9-0.7,4.4l-0.3,1.7c-0.2,1-0.3,2-0.4,2.9c-0.3,2.2-0.6,4.5-0.9,6.8l-0.3,2.3c-0.8,7.6-1.4,15.8-1.6,24.2L4.5,296
			c0,0.7-0.1,1.4-0.1,2.2l0,0.5c0,1,0,1.9,0,2.9c0,31.1,5.1,61.7,15.1,90.8c2.6,7.7,5.4,14.8,8.6,21.9l3.6,8L78.9,375l23.3,23.3
			c48.4,48.4,112.8,72.1,181.3,72.1c0,0,0,0,0,0c68.5,0,132.9-23.7,181.3-72.1l23.3-23.3l47.2,47.2l3.6-8
			c15.7-35.6,23.7-73.5,23.7-112.6C562.5,300.6,562.5,299.7,562.5,298.7z"/>
	</g>
	<g id="XMLID_55_">
		<path id="XMLID_69_" fill="#3A3A3A" d="M562.5,288.9v-0.7c-0.6-48.7-14-96.5-38.7-138.5c-0.1-0.2-0.2-0.4-0.4-0.7
			c-3.8-6.3-7.8-12.4-11.9-18.3c-4.2-6-8.7-11.8-13.1-17.2c-4.6-5.6-9.5-11-14.4-16.1c-21.5-22.3-46.6-40.7-74.6-54.8
			c-1.6-0.8-3.5-1.8-5.6-2.7l0.1-0.1L388.8,33v0.2c-22.1-9-45.3-15.2-69-18.3c-23.7-3.1-49-3.1-72.7,0
			c-25.9,3.4-51.3,10.4-75.4,20.9l-0.8,0.4c-0.5,0.2-1,0.5-1.5,0.7c-0.2,0.1-0.5,0.2-0.8,0.3c-7.3,3.3-14.6,7-22.5,11.4
			c-3.8,2.2-7.9,4.5-11.9,7.1c-2,1.2-4,2.5-5.9,3.8c-1.4,0.9-2.9,1.9-4.3,2.9c-0.5,0.3-1.1,0.7-1.6,1.1l-0.3,0.2
			c-1,0.6-1.9,1.3-2.9,2c-1.4,1-2.9,2.1-4.3,3.2c-3.7,2.8-7.5,5.8-11.1,8.8c-1.3,1.1-2.5,2.2-3.8,3.2c-4.5,3.9-9,8.1-13.4,12.5
			c-0.7,0.7-1.4,1.3-1.9,1.9c-1.3,1.3-2.6,2.6-3.7,3.9c-0.8,0.8-1.6,1.6-2.3,2.4c-4.1,4.4-8.2,9.1-12,13.8c-1.4,1.7-2.8,3.5-4.2,5.3
			c-1,1.4-2.1,2.7-3,4.1c-1.7,2.3-3.4,4.5-4.9,6.8c-1.2,1.8-2.4,3.5-3.6,5.3l-0.2,0.3c-0.9,1.4-1.8,2.8-2.7,4.1
			c-0.6,0.9-1.2,1.9-1.7,2.7c-1,1.6-2,3.1-2.9,4.8l-0.4,0.7c-0.7,1.1-1.3,2.3-2,3.4l-2.4,4.2c-7.3,13.4-13.6,27.4-18.6,41.6
			l-0.3,0.7v0c-0.9,2.6-1.8,5.2-2.6,7.8l-0.2,0.7c-0.8,2.7-1.6,5.3-2.4,8l-0.3,1.3c-0.7,2.5-1.3,5-2,7.6c-0.1,0.6-0.3,1.3-0.5,2
			c-0.5,2.2-1,4.5-1.5,6.6c-0.1,0.6-0.2,1.2-0.4,1.8c-0.1,0.5-0.2,1-0.3,1.6l-0.2,1.1c-0.3,1.4-0.6,2.9-0.9,4.4
			c-0.2,1.4-0.5,2.9-0.7,4.4l-0.3,1.7c-0.2,1-0.3,2-0.4,2.9c-0.3,2.2-0.6,4.5-0.9,6.8l-0.3,2.3c-0.8,7.6-1.4,15.8-1.6,24.2l-0.1,1.1
			c0,0.7-0.1,1.4-0.1,2.2l0,0.5c0,1,0,1.9,0,2.9c0,31.1,5.1,61.7,15.1,90.8c2.6,7.7,5.4,14.8,8.6,21.9l3.6,8l47.2-47.2l23.3,23.3
			c48.4,48.4,112.8,75.1,181.3,75.1c0,0,0,0,0,0c68.5,0,132.9-26.7,181.3-75.1l23.3-23.3l47.2,47.2l3.6-8
			c15.7-35.6,23.7-73.5,23.7-112.6C562.5,290.7,562.5,289.8,562.5,288.9z"/>
	</g>
</g>
<g id="XMLID_1_">
	<g id="XMLID_50_">
		<path id="XMLID_66_" fill="#EFEFEF" d="M108.5,377.8c46.7,46.7,108.8,72.5,174.9,72.5c66.1,0,128.2-25.7,174.9-72.5l21.2-21.2
			L283.5,160.6L87.4,356.6L108.5,377.8z"/>
	</g>
	<g id="XMLID_45_">
		<path id="XMLID_62_" fill="#FFEC00" d="M31.2,379.5c1.4,3.9,2.8,7.8,4.4,11.8l34.7-34.7L16.7,303C17.8,329.3,22.7,355,31.2,379.5z
			"/>
	</g>
	<g id="XMLID_40_">
		<path id="XMLID_58_" fill="#FFBC00" d="M49,163.9c-0.8,1.4-1.5,2.8-2.2,4.2c-1.7,3.3-3.3,6.6-4.9,9.8c-1.3,2.7-2.6,5.6-4.2,9.3
			v1.1L37,189c-1,2.3-1.9,4.6-2.8,7l-0.2,0.5c-0.9,2.5-1.8,5-2.7,7.5l-0.2,0.5c-0.9,2.5-1.7,5.1-2.5,7.6l-0.2,0.8
			c-0.8,2.5-1.5,4.9-2.2,7.4l-0.5,1.9c-0.6,2.1-1.1,4.2-1.6,6.3c-0.2,0.6-0.3,1.1-0.4,1.6c-0.6,2.4-1.1,4.6-1.5,6.8l-0.4,2.2
			c-0.4,2-0.8,4.1-1.2,6.2c-0.1,0.7-0.2,1.2-0.3,1.8l-0.1,0.9c-0.3,1.9-0.7,3.9-0.9,5.8l-0.4,3.3c-0.2,1.7-0.5,3.5-0.7,5.3l-0.5,5.4
			c-0.1,1-0.2,2.1-0.3,3.1c-0.1,0.9-0.1,1.8-0.2,2.7l-0.2,3c-0.1,1-0.1,2-0.2,3l-0.2,4.4c0,0.5,0,0.9,0,1.4l0,0.6c0,0,0,0.1,0,0.1
			l62.3,62.3l83.9-83.9C116.8,242.1,76.8,206.9,49,163.9z"/>
	</g>
	<g id="XMLID_38_">
		<path id="XMLID_54_" fill="#FC6D26" d="M236.9,94.1c0.9-0.7,1.8-1.4,2.7-2l0.5-0.3c0.8-0.6,1.8-1.3,2.7-2c1-0.7,2.2-1.4,3.3-2
			l0.7-0.4c0.7-0.4,1.4-0.8,2.1-1.2c1.2-0.6,2.4-1.2,3.6-1.7c0.5-0.2,0.8-0.4,1.2-0.5c0.6-0.3,1.2-0.6,1.8-0.8
			c1.2-0.5,2.5-0.9,3.8-1.4l0.4-0.2c0.8-0.3,1.6-0.6,2.4-0.8c1-0.3,2.2-0.6,3.3-0.8l1.6-0.4c0.7-0.2,1.4-0.4,2.1-0.5
			c1.4-0.3,3-0.5,4.6-0.7c0.3,0,0.6-0.1,0.8-0.1c0.6-0.1,1.1-0.2,1.7-0.2c2.4-0.2,4.9-0.3,7.2-0.3s4.8,0.1,7.3,0.4
			c0.5,0,1.1,0.1,1.6,0.2c0.2,0,0.5,0.1,0.7,0.1c1.7,0.2,3.3,0.4,4.8,0.7c0.5,0.1,1.2,0.3,1.9,0.4l1.6,0.4c1.2,0.3,2.3,0.5,3.5,0.9
			c0.6,0.2,1.3,0.4,1.9,0.6l1.8,0.6c1,0.3,2,0.7,3,1.1c0.8,0.3,1.7,0.8,2.6,1.2l0.4,0.2c1.1,0.5,2.3,1,3.5,1.6
			c0.9,0.5,1.8,1,2.6,1.5l0.7,0.4c1,0.6,1.9,1.1,2.8,1.7c0.7,0.5,1.3,0.9,1.9,1.3l1.4,1c0.9,0.7,1.8,1.3,2.7,2
			c0.5,0.4,1,0.8,1.5,1.3l51.5-51.5l-2.5-1c-1-0.4-2-0.8-3-1.2c-0.9-0.3-1.6-0.6-2.4-0.9l-10.5-3.6c-0.8-0.3-1.6-0.5-2.3-0.7
			l-4.3-1.3c-1-0.3-2.2-0.6-3.3-0.9l-0.6-0.2c-0.8-0.2-1.7-0.5-2.5-0.7l-3.6-0.9c-1.1-0.3-2.1-0.5-3.1-0.8l-3.6-0.8
			c-1-0.2-2.1-0.5-3.2-0.7l-0.5-0.1c-1-0.2-1.9-0.4-2.9-0.5l-6.9-1.3c-0.8-0.1-1.8-0.3-2.7-0.4l-4.1-0.6c-1-0.1-2-0.3-3-0.4
			c-0.9-0.1-1.7-0.2-2.5-0.3l-8.3-0.9c-0.9-0.1-1.9-0.2-2.8-0.2c-1.5-0.1-2.8-0.2-4.1-0.3l-1.1-0.1c-0.5,0-1.1-0.1-1.6-0.1
			c-1.1-0.1-2.1-0.1-3.1-0.1l-3.9-0.1c-4.5-0.1-9.2-0.1-13.8,0l-3.9,0.1c-1,0-2,0.1-3,0.1c-0.7,0-1.2,0.1-1.8,0.1l-1,0.1
			c-1.4,0.1-2.8,0.1-4.1,0.3c-0.9,0.1-1.8,0.1-2.6,0.2l-8.6,0.9c-0.8,0.1-1.6,0.2-2.4,0.3c-1,0.1-1.9,0.2-2.8,0.4l-4.3,0.6
			c-1,0.2-1.9,0.3-2.9,0.5l-6.7,1.2c-1.1,0.2-2,0.4-3,0.6l-1.1,0.2c-0.9,0.2-1.8,0.4-2.8,0.6l-3.6,0.8c-0.9,0.2-1.8,0.4-2.7,0.7
			l-3.9,1c-0.8,0.2-1.6,0.4-2.5,0.7l-0.5,0.1c-1.3,0.3-2.4,0.6-3.6,1l-4.2,1.3c-0.8,0.2-1.5,0.5-2.2,0.7c-1.1,0.4-2.1,0.7-3.1,1
			l-3.5,1.2c-1,0.3-2,0.7-3,1.1l-1.4,0.5c-0.7,0.2-1.4,0.5-2.1,0.8l-5.6,2.2l51.5,51.5C235.9,95,236.4,94.5,236.9,94.1z"/>
	</g>
	<g id="XMLID_37_">
		<path id="XMLID_51_" fill="#FF9100" d="M171.8,255.2l55.1-55.1c-11.4-13.4-17.7-30.3-17.7-48.1c0-9.6,1.8-19,5.3-27.8
			c2.8-6.9,6.6-13.3,11.4-19.1l0.4-0.5c0.2-0.3,0.4-0.5,0.6-0.7l0,0L172,49c-2.5,1.1-4.9,2.3-7.3,3.5l-0.8,0.4
			c-0.3,0.2-0.7,0.4-1,0.5l-2.9,1.4c-1.5,0.8-3.2,1.7-4.8,2.6c-0.4,0.3-1,0.6-1.6,0.9l-3,1.7c-0.6,0.3-1.1,0.6-1.6,0.9
			c-1.9,1.1-3.6,2.1-5.3,3.2l-2.2,1.3c-1.5,0.9-2.9,1.8-4.4,2.8l-2.3,1.6c-0.9,0.6-1.7,1.2-2.6,1.7c-0.7,0.5-1.4,0.9-2,1.4
			c-0.6,0.4-1.1,0.8-1.5,1.1c-0.7,0.5-1.3,1-2,1.5l-0.4,0.3c-1.3,0.9-2.5,1.8-3.8,2.8c-0.8,0.6-1.4,1.1-2.1,1.6l-4.3,3.4
			c-0.7,0.6-1.5,1.2-2.3,1.8c-0.3,0.2-0.4,0.3-0.6,0.5c-2,1.7-4.2,3.5-6.4,5.4l-0.6,0.5c-0.6,0.5-1.2,1-1.7,1.6
			c-0.8,0.7-1.4,1.3-2.1,1.9l-1.9,1.7c-1.8,1.6-3.7,3.4-5.6,5.4c-1.2,1.1-2.3,2.2-3.3,3.4c-1.3,1.3-2.5,2.7-3.8,4l-2.3,2.4
			c-0.5,0.5-0.9,1-1.4,1.5c-0.6,0.6-1,1.1-1.4,1.5c-0.6,0.7-1.2,1.4-1.8,2.2c-0.5,0.6-1.1,1.3-1.7,1.9c-0.6,0.7-1.2,1.4-1.9,2.2
			c-1,1.2-1.9,2.4-2.9,3.7c-0.8,1-1.5,1.9-2.2,2.8c-0.7,0.8-1.2,1.5-1.8,2.3c-0.2,0.3-0.5,0.7-0.8,1l-3,4.1c-1,1.3-1.9,2.6-2.8,4
			c-0.5,0.7-0.9,1.3-1.3,2l-0.2,0.3c-0.5,0.7-1,1.5-1.5,2.2c-0.6,0.9-1.2,1.7-1.7,2.6c-1.2,1.9-2.4,3.7-3.5,5.6
			C83.3,196.9,124.3,233.3,171.8,255.2z"/>
	</g>
	<g id="XMLID_36_">
		<path id="XMLID_47_" fill="#FFBC00" d="M550.3,283.2c0-1.3-0.1-2.6-0.1-3.9c-0.1-1.8-0.2-3.6-0.3-5.4c0-0.6-0.1-1.1-0.1-1.7
			c0-0.5-0.1-1.1-0.1-1.6l0-0.4c-0.2-1.8-0.3-3.6-0.5-5.4l-0.3-2.9c-0.2-2-0.5-4.1-0.8-6.1l-0.3-2.5c-0.3-2.2-0.7-4.3-1-6.4
			l-0.1-0.9c-0.1-0.4-0.1-0.8-0.2-1.2c-0.4-2.3-0.8-4.3-1.2-6.4L545,238c-0.1-0.8-0.2-1.3-0.4-1.8c-0.5-2.3-1-4.5-1.5-6.7l-0.2-0.7
			c-0.1-0.3-0.1-0.6-0.2-0.9c-0.5-2.2-1.1-4.1-1.6-6.1l-0.7-2.5c-0.4-1.6-0.9-3.1-1.3-4.6l-0.6-2c-0.1-0.2-0.2-0.6-0.3-0.9
			c-0.1-0.2-0.1-0.5-0.2-0.7c-0.7-2.3-1.4-4.4-2.2-6.5l-0.7-2c-0.7-1.9-1.5-4-2.3-6.1l-0.3-0.9c-0.1-0.4-0.3-0.7-0.4-1
			c-0.8-2-1.5-3.9-2.3-5.7l-0.4-1c-0.2-0.4-0.3-0.9-0.5-1.3c-0.6-1.4-1.2-2.8-1.8-4.1l-1.8-4.1c-0.4-0.9-0.9-1.9-1.4-2.9l-1.6-3.3
			c-0.2-0.5-0.5-1-0.8-1.5c-0.9-1.7-1.7-3.3-2.5-4.8c-0.2-0.4-0.4-0.8-0.7-1.2c-0.1-0.2-0.2-0.4-0.3-0.7
			c-27.8,42.9-67.7,78.2-113.7,100.3l83.9,83.9l62.3-62.2c0-0.6,0-1-0.1-1.5L550.3,283.2z"/>
	</g>
	<g id="XMLID_35_">
		<path id="XMLID_43_" fill="#FF5500" d="M329.4,110.1c-0.2-0.3-0.4-0.5-0.7-0.8l-1.3-1.3l-1.3-1.3c-0.7-0.7-1.3-1.3-2-1.9
			c-0.6-0.5-1.2-1-1.7-1.4c-0.7-0.5-1.3-1-1.9-1.5l-1.9-1.3c-3.7-2.6-7.8-4.7-12-6.4c-0.7-0.3-1.4-0.5-2.1-0.8
			c-1.1-0.4-2.1-0.7-3.1-1c-1.7-0.5-3.5-1-5.7-1.4c-3.9-0.8-8.1-1.2-12.2-1.2c-16.1,0-31.4,6.1-43,17.2l-1.1,1
			c-0.3,0.3-0.6,0.6-0.9,0.9c-0.4,0.4-0.7,0.8-1,1.2c-0.3,0.3-0.5,0.6-0.8,0.9c-5,5.7-8.9,12.1-11.5,19c-0.3,0.9-0.6,1.7-0.9,2.6
			c-0.6,1.9-1.1,3.7-1.5,5.4c-0.2,0.9-0.4,1.7-0.5,2.6c-0.2,0.9-0.3,1.6-0.4,2.4c-0.1,0.8-0.2,1.5-0.3,2.3l-0.1,1
			c-0.2,2-0.3,3.8-0.3,5.8c0,3.4,0.3,6.8,0.8,10.1c0.1,0.8,0.2,1.3,0.3,1.8l0.1,0.4c0.1,0.8,0.3,1.5,0.5,2.3c0.3,1.1,0.5,2,0.8,2.9
			c0.2,0.7,0.4,1.3,0.6,1.9l0,0l0.3,1c0,0.1,0.1,0.3,0.1,0.4l0,0c0.5,1.6,1.2,3.2,2,4.9l0.3,0.6c0.3,0.7,0.7,1.4,1,2.1
			c2,3.9,4.5,7.6,7.3,11l48-48l48,48c9.2-11.1,14.2-25,14.2-39.5c0-1.9-0.1-3.8-0.3-5.7l-0.2-1.5c-0.1-0.7-0.1-1.3-0.2-1.8
			c-0.1-0.8-0.2-1.5-0.4-2.2c-0.1-0.8-0.2-1.3-0.4-1.8l-0.1-0.7c-0.5-1.9-0.9-3.7-1.6-5.6c-0.3-0.8-0.5-1.6-0.8-2.4
			c-2.7-7.2-6.6-13.6-11.6-19.2C329.9,110.7,329.7,110.4,329.4,110.1z"/>
	</g>
	<g id="XMLID_34_">
		<path id="XMLID_39_" fill="#FF9100" d="M341.1,105.2l0.2,0.2c0.6,0.7,1.2,1.5,1.7,2.3l1.3,1.7c0.5,0.6,0.9,1.2,1.3,1.9
			c0.5,0.8,1.1,1.7,1.6,2.6l0.4,0.7c0.2,0.4,0.4,0.7,0.6,1c0.4,0.6,0.8,1.3,1.1,2c0.4,0.8,0.9,1.8,1.3,2.7l0.8,1.6
			c0.3,0.7,0.7,1.4,0.9,2.1c0.5,1.2,0.9,2.5,1.3,3.8l0.1,0.3c0.3,0.8,0.6,1.7,0.9,2.6c0.3,1,0.6,2.1,0.8,3.3l0.4,1.6
			c0.2,0.7,0.4,1.4,0.5,2.2c0.3,1.5,0.5,3.1,0.7,4.6c0,0.4,0.1,0.7,0.2,1c0.1,0.4,0.1,0.8,0.2,1.3c0.2,2.6,0.4,5.1,0.4,7.4
			c0,17.8-6.2,34.7-17.7,48.1l55.1,55.1c47.5-21.9,88.5-58.3,115.9-103l-3.5-5.7c-0.1-0.1-0.3-0.4-0.5-0.7c-0.1-0.1-0.2-0.3-0.3-0.4
			l-0.9-1.4c-0.4-0.6-0.7-1.1-1-1.6l-0.9-1.4l0,0c0,0,0,0,0,0l-0.1-0.1c-0.3-0.5-0.6-0.9-0.9-1.3c-0.5-0.8-0.9-1.3-1.3-1.9
			c0,0-0.1-0.1-0.2-0.2l-0.7-1c-0.1-0.2-0.2-0.3-0.3-0.3l-2.4-3.3l-1-1.3c-0.5-0.7-1-1.4-1.5-2.1l-0.3-0.4c-0.9-1.1-1.8-2.2-2.7-3.3
			l-0.7-0.8c-0.4-0.5-0.9-1.1-1.3-1.6c-0.5-0.6-1-1.2-1.5-1.8l-0.5-0.6c-0.2-0.2-0.5-0.6-0.8-0.9l-0.6-0.7c-0.8-0.9-1.4-1.6-2-2.3
			l-0.9-1c-0.7-0.8-1.3-1.6-2-2.3l-0.2-0.3c-0.9-1-1.8-1.9-2.7-2.9l-0.9-1c-0.5-0.5-1-1-1.4-1.6c-0.6-0.6-1.1-1.2-1.7-1.8l-0.3-0.3
			c-0.7-0.7-1.4-1.4-2.2-2.1l-2.7-2.6c-0.6-0.6-1.2-1.2-1.8-1.8l-0.1,0l-0.5-0.5c-0.3-0.3-0.6-0.6-0.9-0.9l-3.8-3.5
			c-1-0.9-1.8-1.7-2.7-2.5c-0.4-0.4-0.7-0.7-1-0.9l-5.4-4.6c-0.4-0.4-0.8-0.7-1.2-1c-0.1-0.1-0.3-0.2-0.5-0.4
			c-0.9-0.7-1.8-1.4-2.7-2.1l-2.1-1.7c-0.9-0.7-1.8-1.5-2.8-2.2c0,0-0.3-0.2-0.4-0.3c-1.3-0.9-2.6-1.9-3.9-2.8l-1.9-1.4
			c-0.4-0.3-0.8-0.6-1.2-0.8l-0.5-0.4c0,0-0.1-0.1-0.1-0.1l-1-0.7c-0.4-0.3-0.8-0.6-1.3-0.9l-2.4-1.6c-1.4-1-2.8-1.9-4.2-2.8
			c-0.3-0.2-0.5-0.3-0.6-0.4l-5.4-3.3c-0.8-0.5-1.7-1.1-2.6-1.6c-0.3-0.2-0.5-0.3-0.7-0.4c-0.6-0.3-1.2-0.7-1.8-1
			c-0.7-0.4-1.4-0.8-2.2-1.2c-1.1-0.6-2.2-1.3-3.4-1.9c-0.5-0.3-0.8-0.4-1.1-0.6l-0.5-0.3c-0.6-0.3-1-0.5-1.5-0.8
			c-0.7-0.4-1.1-0.6-1.5-0.8l-0.3-0.2c-0.1-0.1-0.2-0.1-0.4-0.2c-0.4-0.2-0.7-0.4-0.9-0.5c-0.8-0.4-1.6-0.8-2.4-1.2
			c-0.7-0.3-1.2-0.6-1.7-0.9l-0.5-0.3c-1.1-0.5-2.2-1-3.3-1.5L395,49L340,103.9C340.4,104.4,340.7,104.8,341.1,105.2z"/>
	</g>
	<g id="XMLID_21_">
		<path id="XMLID_23_" fill="#FFEC00" d="M531.3,391.3c11.3-28.1,17.7-57.7,19-88.2l-53.6,53.6L531.3,391.3z"/>
	</g>
	<g id="XMLID_20_">
		<g id="XMLID_104_" opacity="0.1">
			<path id="XMLID_126_" d="M69.3,461c-0.8,0-1.6-0.1-2.5-0.4c-2.3-0.6-4.8-1.9-7.4-3.8c-2.6-1.9-4.9-4.2-7.1-7
				c-3.2-4.1-5.1-8.5-5.5-13.1c-0.5-4.6,0.3-9.2,2.4-13.6c2.1-4.4,5.3-8.2,9.4-11.5c4.3-3.4,9-5.6,13.7-6.4c1.6-0.3,3.3-0.5,4.9-0.5
				c3.1,0,6.1,0.6,9,1.7c4.4,1.7,8.2,4.6,11.4,8.6c3.5,4.5,5.6,8.7,6.4,12.6c0.8,4.1-0.2,7.3-2.8,9.3c-1.3,1-2.8,1.6-4.4,1.6
				c-1.7,0-3.1-0.7-4.1-2c-0.7-0.9-1.2-1.8-1.4-2.7c-0.2-0.8-0.3-1.6-0.3-2.5c0-0.7,0-1.4-0.1-2c-0.1-0.6-0.4-1.4-1-2.5
				c-0.5-1.1-1-1.9-1.5-2.5c-2.9-3.7-6.1-5.6-10-5.8c-0.3,0-0.7,0-1,0c-3.5,0-7,1.3-10.4,4c-3.5,2.8-5.7,6.1-6.4,10
				c-0.7,3.9,0.2,7.3,2.7,10.6c1.9,2.4,3.5,3.9,5,4.6c0.4,0.2,0.9,0.4,1.7,0.6c0.9,0.3,1.6,0.5,2.3,0.9c0.7,0.4,1.4,0.9,2,1.7
				c1.2,1.5,1.6,3.1,1.3,4.8c-0.3,1.6-1.2,3.1-2.7,4.2C71.9,460.6,70.7,461,69.3,461z"/>
			<path id="XMLID_123_" d="M111.9,497.5c-1.2,0-2.5-0.1-3.7-0.3c-4.8-0.7-9.2-2.6-13.2-5.7c-4-3.1-7-7-8.8-11.4
				c-1.8-4.5-2.4-9.2-1.6-14.1c0.7-4.9,2.8-9.6,6.2-13.9c3.3-4.3,7.3-7.5,11.9-9.4c3.5-1.5,7-2.2,10.6-2.2c1.2,0,2.4,0.1,3.5,0.2
				c4.8,0.6,9.3,2.6,13.3,5.7c4,3.1,6.9,6.9,8.8,11.4c1.8,4.5,2.4,9.3,1.6,14.2c-0.8,4.9-2.8,9.6-6.2,13.9
				c-3.3,4.3-7.3,7.5-11.9,9.4C118.9,496.8,115.4,497.5,111.9,497.5z M114,453.8c-2,0-4,0.5-6,1.4c-2.5,1.1-4.7,2.9-6.5,5.3
				c-1.9,2.4-3.1,5-3.5,7.6c-0.5,2.6-0.3,5.1,0.6,7.4c0.8,2.3,2.3,4.2,4.3,5.8c2,1.6,4.3,2.5,6.7,2.7c0.5,0,0.9,0.1,1.4,0.1
				c2,0,4-0.4,5.9-1.3c2.4-1.1,4.6-2.9,6.5-5.3c1.9-2.4,3.1-5,3.6-7.7c0.5-2.6,0.3-5.1-0.6-7.4c-0.8-2.3-2.3-4.2-4.3-5.8
				c-2-1.6-4.3-2.5-6.7-2.7C114.9,453.9,114.5,453.8,114,453.8z"/>
			<path id="XMLID_122_" d="M138.8,517.7c-1,0-2.1-0.3-3.1-0.8c-1.8-0.9-2.9-2.2-3.5-4c-0.6-1.8-0.4-3.6,0.5-5.3l18.3-36.8
				c0.9-1.8,2.2-3,4-3.6c0.7-0.3,1.5-0.4,2.2-0.4c1,0,2.1,0.3,3.1,0.8c1.8,0.9,2.9,2.2,3.5,4c0.4,1.3,0.4,2.5,0.1,3.8
				c2-0.9,4.2-1.4,6.5-1.4c0,0,0,0,0,0c3.4,0,6.5,0.7,9.4,2.2c2,1,3.3,2.4,4.1,4.2c0.8,1.9,0.8,3.7,0,5.3c-1,2.1-2.4,3.4-4,3.9
				c-0.7,0.2-1.4,0.3-2,0.3c-0.9,0-1.9-0.2-2.7-0.7c-1-0.5-2-1.3-3-2.3l-0.9-0.9c-0.5-0.4-1-0.8-1.6-1.1c-1-0.5-2.1-0.7-3.3-0.7
				c-0.4,0-0.8,0-1.2,0.1c-1.7,0.2-3.4,1-5.1,2.4c-1.7,1.4-3.3,3.4-4.5,5.9l-10.5,21.1c-0.9,1.8-2.2,3-4,3.6
				C140.2,517.6,139.5,517.7,138.8,517.7z"/>
			<path id="XMLID_117_" d="M202,542.8c-2.9,0-5.7-0.4-8.5-1.2c-5.4-1.6-9.8-4.2-13.1-7.8c-3.3-3.5-5.5-7.7-6.5-12.4
				c-1-4.7-0.7-9.6,0.8-14.6c1.7-5.6,4.4-10.2,8-13.8c3.6-3.6,7.7-5.9,12.2-7c2.1-0.5,4.1-0.8,6.1-0.8c2.4,0,4.8,0.4,7.1,1.1
				c4.3,1.3,8,3.7,11.1,7.3c3,3.5,5.1,7.6,6.2,12.3c1,4.7,0.8,9.4-0.6,14c-0.6,1.8-1.8,3.1-3.5,3.8c-0.9,0.4-1.9,0.6-2.9,0.6
				c-0.7,0-1.4-0.1-2.2-0.3l-29.7-9c-0.1,3.2,0.7,6.1,2.4,8.5c1.9,2.7,4.4,4.6,7.6,5.6c2.3,0.7,4.2,1.1,5.7,1.1
				c1.7,0,2.9-0.2,3.8-0.5c1-0.3,1.7-0.5,2.1-0.6c0.7-0.1,1.3-0.2,1.8-0.2c0.8,0,1.5,0.1,2.1,0.3c1.6,0.5,2.8,1.5,3.5,2.9
				c0.8,1.5,0.9,3,0.5,4.5c-0.6,2-2.2,3.5-4.6,4.5c-2.3,1-5.1,1.5-8.5,1.6L202,542.8z M212.6,510.4c0.4-2.3-0.2-4.6-1.7-6.9
				c-1.6-2.4-3.8-4-6.4-4.8c-1.7-0.5-3.3-0.8-4.8-0.8c-4,0-7.1,1.9-9.4,5.7L212.6,510.4z"/>
			<path id="XMLID_114_" d="M272.8,554.3c-2-0.2-3.5-1-4.6-2.5c-0.7-0.9-1.2-1.9-1.4-3c-1.6,1.2-3.6,2.3-5.8,3.1
				c-2.4,0.9-4.8,1.3-7.3,1.3c-0.7,0-1.4,0-2.1-0.1c-4.6-0.5-8.8-2.1-12.3-4.9c-3.5-2.8-6.2-6.5-7.9-11c-1.7-4.5-2.4-9.5-1.8-14.9
				c0.5-5.4,2.1-10.2,4.7-14.3c2.6-4.1,5.9-7.2,9.9-9.3c3.3-1.7,6.8-2.6,10.4-2.6c0.8,0,1.6,0,2.4,0.1c3.2,0.3,6.2,1.2,9,2.7
				c2,1.1,3.7,2.3,5.2,3.7l1.7-12.3c0.2-2,2-4.6,3.4-5.8c1.2-1.1,2.7-1.6,4.3-1.6c0.3,0,0.5,0,0.8,0c1.9,0.2,3.5,1,4.7,2.5
				c1.2,1.4,0.6,4.2,0.4,6.2l-6.1,56.1c-0.2,2-1,3.6-2.4,4.8c-1.2,1.1-2.7,1.6-4.3,1.6C273.4,554.3,273.1,554.3,272.8,554.3z
				 M256,509.2c-3.3,0-6,1.2-8.5,3.5c-2.8,2.7-4.4,6.4-4.9,10.9c-0.4,4.5,0.4,8.4,2.6,11.6c2.2,3.2,5.1,4.9,9.1,5.3
				c0.5,0.1,1,0.1,1.5,0.1c3.3,0,6.1-1.1,8.5-3.5c2.8-2.7,4.4-6.3,4.9-10.8c0.4-4.5-0.4-8.4-2.6-11.6c-2.2-3.2-5.2-5-9.1-5.3
				C257,509.3,256.5,509.2,256,509.2z"/>
			<path id="XMLID_111_" d="M317.7,553.7c-3.9,0-7.7-0.8-11.2-2.4c-4.4-2-8.1-5.1-10.9-9.1c-2.8-4.1-4.5-8.9-5.1-14.3
				c-0.5-5.4,0.2-10.5,2.2-15c2-4.6,5-8.3,8.9-11.1c3.9-2.8,8.5-4.5,13.6-5c1-0.1,2-0.1,2.9-0.1c3.9,0,7.7,0.8,11.3,2.4
				c4.4,2,8.1,5.1,10.9,9.2c2.8,4.1,4.5,8.9,5.1,14.3c0.5,5.4-0.2,10.5-2.2,15c-2,4.6-5,8.3-9,11.1c-3.9,2.8-8.5,4.5-13.5,4.9
				C319.7,553.6,318.7,553.7,317.7,553.7z M317.8,509.5c-0.5,0-0.9,0-1.4,0.1c-2.5,0.3-4.8,1.1-6.7,2.6c-2,1.5-3.4,3.5-4.5,6
				c-1,2.5-1.4,5.3-1.1,8.4c0.3,3.1,1.2,5.7,2.7,8c1.5,2.2,3.3,3.9,5.5,5c1.8,0.9,3.7,1.3,5.7,1.3l0,0c0.5,0,0.9,0,1.4-0.1
				c2.5-0.2,4.8-1.1,6.7-2.6c2-1.5,3.5-3.5,4.5-6c1-2.5,1.4-5.3,1.1-8.3c-0.3-3-1.2-5.7-2.7-8c-1.5-2.3-3.3-3.9-5.5-5
				C321.7,509.9,319.8,509.5,317.8,509.5z"/>
			<path id="XMLID_110_" d="M375.6,542.3c-2.2,0-4.3-0.3-6.4-0.9c-4.5-1.3-8.4-3.7-11.7-7.3c-3.3-3.5-5.7-7.9-7.2-13
				c-1.6-5.3-1.9-10.4-0.9-15.1c0.9-4.8,3-9,6.2-12.4c3.2-3.5,7.3-6,12.2-7.4c3.7-1.1,7.1-1.6,10.1-1.6c1.4,0,2.7,0.1,4,0.4
				c4.1,0.8,6.7,2.8,7.6,6c0.5,1.6,0.4,3.2-0.2,4.7c-0.6,1.6-1.7,2.6-3.4,3.1c-0.8,0.2-1.6,0.4-2.3,0.4c-0.2,0-0.5,0-0.7,0
				c-0.8-0.1-1.6-0.3-2.4-0.7c-0.7-0.3-1.3-0.5-1.9-0.6c-0.3-0.1-0.7-0.1-1.3-0.1c-0.4,0-0.9,0-1.5,0.1c-1.2,0.1-2.2,0.3-2.9,0.5
				c-4.4,1.3-7.4,3.7-9.1,7.2c-1.7,3.5-1.8,7.6-0.5,12.1c1.3,4.3,3.6,7.6,7,9.6c2.1,1.3,4.4,2,6.8,2c1.3,0,2.7-0.2,4.1-0.6
				c2.9-0.8,4.9-1.8,6.1-2.9c0.3-0.3,0.7-0.7,1.1-1.3c0.6-0.7,1.1-1.3,1.6-1.8c0.6-0.5,1.4-0.9,2.3-1.2c0.7-0.2,1.3-0.3,2-0.3
				c1.1,0,2.1,0.3,3,0.8c1.4,0.9,2.4,2.2,2.9,4.1c0.5,1.8,0,3.8-1.5,5.9c-1.4,1.9-3.5,3.8-6.3,5.5c-2.7,1.7-5.8,3-9.1,4
				C380.7,541.8,378.1,542.3,375.6,542.3z"/>
			<path id="XMLID_109_" d="M418,526.8c-0.7,0-1.4-0.1-2.1-0.4c-1.8-0.6-3.1-1.8-4-3.5l-25.6-51.3c-0.9-1.8-1.1-2.6-0.6-4.3
				c0.5-1.8,1.7-3.2,3.4-4.1c1.1-0.6,2.1-0.8,3.2-0.8c0.7,0,1.4,0.1,2.1,0.3c1.8,0.6,3.1,1.8,4,3.5l13,26.5l8.2-25.7
				c0.6-1.9,1.7-3.4,3.4-4.2c0.8-0.4,1.7-0.7,2.7-0.7c0.8,0,1.6,0.1,2.4,0.4c1.8,0.6,3.1,1.6,3.8,3c0.9,1.7,0.9,3.6,0.1,5.9
				l-6.3,18.2l23,8.4c1.9,0.7,3.4,1.9,4.3,3.6c0.9,1.7,1,3.5,0.3,5.4c-0.7,1.8-1.8,3.1-3.3,3.9c-1,0.5-2,0.8-3,0.8
				c-0.8,0-1.7-0.2-2.5-0.5l-23.4-8.2l-1.7,4.9l4.7,8.9c0.9,1.8,1.1,3.5,0.6,5.3c-0.5,1.8-1.7,3.2-3.4,4.1
				C420.1,526.5,419,526.8,418,526.8z"/>
			<path id="XMLID_106_" d="M468.1,491.8c-3,0-6-0.6-8.9-1.6c-4.5-1.7-8.5-4.6-11.9-8.5c-3.8-4.4-6.3-9.2-7.4-14.1
				c-1.1-4.9-0.9-9.7,0.6-14.1c1.5-4.4,3.9-8.1,7.4-11.1c3.4-2.9,7.4-4.8,12-5.5c1.4-0.2,2.8-0.3,4.2-0.3c3.2,0,6.4,0.6,9.5,1.7
				c4.5,1.6,8.4,4.3,11.6,8c1.2,1.5,1.6,3.2,1.4,4.9c-0.3,1.7-1.1,3.2-2.5,4.4l-23.5,20.3c2.5,1.7,5.1,2.5,7.9,2.5l0.6,0
				c3.3-0.1,6.3-1.3,8.7-3.4c1.9-1.7,3.3-3.2,4-4.4c0.8-1.3,1.3-2.4,1.6-3.3l0.6-2.1c0.6-1.4,1.3-2.5,2.2-3.3
				c1.1-0.9,2.4-1.4,3.8-1.4l0.5,0c1.6,0.1,3,0.8,4.1,2c1.4,1.6,1.8,3.7,1.3,6.3c-0.4,2.5-1.5,5.2-3.1,8c-1.7,2.9-3.8,5.4-6.2,7.5
				c-4.3,3.7-8.8,6-13.6,6.9C471.4,491.6,469.7,491.8,468.1,491.8z M463.8,449.3c-2.9,0.1-5.4,1-7.5,2.9c-5,4.4-6.2,9.2-3.4,14.7
				l17.7-15.3c-1.7-1.5-3.8-2.3-6.4-2.3v-1L463.8,449.3z"/>
			<path id="XMLID_105_" d="M512.2,453c-1.4,0-2.8-0.5-4.2-1.4l-33.6-23.6c-1.6-1.1-2.6-2.6-3-4.5c-0.4-1.8,0-3.6,1.2-5.2
				c1.1-1.6,2.6-2.6,4.5-2.8c0.4-0.1,0.7-0.1,1.1-0.1c0.9,0,1.8,0.2,2.7,0.6c-0.6-2.1-0.7-4.3-0.4-6.6c0.5-3.3,1.7-6.3,3.6-9
				c1.2-1.8,2.9-2.9,4.8-3.4c0.6-0.2,1.3-0.3,1.9-0.3c1.2,0,2.4,0.4,3.3,1.1c1.9,1.3,3,2.9,3.3,4.6c0.3,1.7-0.1,3.3-1.1,4.7
				c-0.6,0.9-1.5,1.7-2.7,2.6l-1,0.8c-0.5,0.4-0.9,0.9-1.3,1.4c-0.9,1.2-1.3,2.7-1.3,4.4c0,1.7,0.5,3.5,1.6,5.4
				c1.1,1.9,2.8,3.7,5.1,5.4l19.3,13.6c1.6,1.1,2.6,2.6,3,4.5c0.4,1.8,0,3.6-1.2,5.2c-1.1,1.6-2.6,2.6-4.5,2.8
				C512.9,452.9,512.6,453,512.2,453z"/>
		</g>
		<g id="XMLID_22_">
			<path id="XMLID_103_" fill="#3A3A3A" d="M69.3,451.2c-0.8,0-1.6-0.1-2.5-0.4c-2.3-0.6-4.8-1.9-7.4-3.8c-2.6-1.9-4.9-4.2-7.1-7
				c-3.2-4.1-5.1-8.5-5.5-13.1c-0.5-4.6,0.3-9.2,2.4-13.6c2.1-4.4,5.3-8.2,9.4-11.5c4.3-3.4,9-5.6,13.7-6.4c1.6-0.3,3.3-0.5,4.9-0.5
				c3.1,0,6.1,0.6,9,1.7c4.4,1.7,8.2,4.6,11.4,8.6c3.5,4.5,5.6,8.7,6.4,12.6c0.8,4.1-0.2,7.3-2.8,9.3c-1.3,1-2.8,1.6-4.4,1.6
				c-1.7,0-3.1-0.7-4.1-2c-0.7-0.9-1.2-1.8-1.4-2.7c-0.2-0.8-0.3-1.6-0.3-2.5c0-0.7,0-1.4-0.1-2c-0.1-0.6-0.4-1.4-1-2.5
				c-0.5-1.1-1-1.9-1.5-2.5c-2.9-3.7-6.1-5.6-10-5.8c-0.3,0-0.7,0-1,0c-3.5,0-7,1.3-10.4,4c-3.5,2.8-5.7,6.1-6.4,10
				c-0.7,3.9,0.2,7.3,2.7,10.6c1.9,2.4,3.5,3.9,5,4.6c0.4,0.2,0.9,0.4,1.7,0.6c0.9,0.3,1.6,0.5,2.3,0.9c0.7,0.4,1.4,0.9,2,1.7
				c1.2,1.5,1.6,3.1,1.3,4.8c-0.3,1.6-1.2,3.1-2.7,4.2C71.9,450.8,70.7,451.2,69.3,451.2z"/>
			<path id="XMLID_100_" fill="#3A3A3A" d="M111.9,487.7c-1.2,0-2.5-0.1-3.7-0.3c-4.8-0.7-9.2-2.6-13.2-5.7c-4-3.1-7-7-8.8-11.4
				c-1.8-4.5-2.4-9.2-1.6-14.1c0.7-4.9,2.8-9.6,6.2-13.9c3.3-4.3,7.3-7.5,11.9-9.4c3.5-1.5,7-2.2,10.6-2.2c1.2,0,2.4,0.1,3.5,0.2
				c4.8,0.6,9.3,2.6,13.3,5.7c4,3.1,6.9,6.9,8.8,11.4c1.8,4.5,2.4,9.3,1.6,14.2c-0.8,4.9-2.8,9.6-6.2,13.9
				c-3.3,4.3-7.3,7.5-11.9,9.4C118.9,486.9,115.4,487.7,111.9,487.7z M114,444c-2,0-4,0.5-6,1.4c-2.5,1.1-4.7,2.9-6.5,5.3
				c-1.9,2.4-3.1,5-3.5,7.6c-0.5,2.6-0.3,5.1,0.6,7.4c0.8,2.3,2.3,4.2,4.3,5.8c2,1.6,4.3,2.5,6.7,2.7c0.5,0,0.9,0.1,1.4,0.1
				c2,0,4-0.4,5.9-1.3c2.4-1.1,4.6-2.9,6.5-5.3c1.9-2.4,3.1-5,3.6-7.7c0.5-2.6,0.3-5.1-0.6-7.4c-0.8-2.3-2.3-4.2-4.3-5.8
				c-2-1.6-4.3-2.5-6.7-2.7C114.9,444,114.5,444,114,444z"/>
			<path id="XMLID_99_" fill="#3A3A3A" d="M138.8,507.8c-1,0-2.1-0.3-3.1-0.8c-1.8-0.9-2.9-2.2-3.5-4c-0.6-1.8-0.4-3.6,0.5-5.3
				L151,461c0.9-1.8,2.2-3,4-3.6c0.7-0.3,1.5-0.4,2.2-0.4c1,0,2.1,0.3,3.1,0.8c1.8,0.9,2.9,2.2,3.5,4c0.4,1.3,0.4,2.5,0.1,3.8
				c2-0.9,4.2-1.4,6.5-1.4c0,0,0,0,0,0c3.4,0,6.5,0.7,9.4,2.2c2,1,3.3,2.4,4.1,4.2c0.8,1.9,0.8,3.7,0,5.3c-1,2.1-2.4,3.4-4,3.9
				c-0.7,0.2-1.4,0.3-2,0.3c-0.9,0-1.9-0.2-2.7-0.7c-1-0.5-2-1.3-3-2.3l-0.9-0.9c-0.5-0.4-1-0.8-1.6-1.1c-1-0.5-2.1-0.7-3.3-0.7
				c-0.4,0-0.8,0-1.2,0.1c-1.7,0.2-3.4,1-5.1,2.4c-1.7,1.4-3.3,3.4-4.5,5.9l-10.5,21.1c-0.9,1.8-2.2,3-4,3.6
				C140.2,507.7,139.5,507.8,138.8,507.8z"/>
			<path id="XMLID_96_" fill="#3A3A3A" d="M202,532.9c-2.9,0-5.7-0.4-8.5-1.2c-5.4-1.6-9.8-4.2-13.1-7.8c-3.3-3.5-5.5-7.7-6.5-12.4
				c-1-4.7-0.7-9.6,0.8-14.6c1.7-5.6,4.4-10.2,8-13.8c3.6-3.6,7.7-5.9,12.2-7c2.1-0.5,4.1-0.8,6.1-0.8c2.4,0,4.8,0.4,7.1,1.1
				c4.3,1.3,8,3.7,11.1,7.3c3,3.5,5.1,7.6,6.2,12.3c1,4.7,0.8,9.4-0.6,14c-0.6,1.8-1.8,3.1-3.5,3.8c-0.9,0.4-1.9,0.6-2.9,0.6
				c-0.7,0-1.4-0.1-2.2-0.3l-29.7-9c-0.1,3.2,0.7,6.1,2.4,8.5c1.9,2.7,4.4,4.6,7.6,5.6c2.3,0.7,4.2,1.1,5.7,1.1
				c1.7,0,2.9-0.2,3.8-0.5c1-0.3,1.7-0.5,2.1-0.6c0.7-0.1,1.3-0.2,1.8-0.2c0.8,0,1.5,0.1,2.1,0.3c1.6,0.5,2.8,1.5,3.5,2.9
				c0.8,1.5,0.9,3,0.5,4.5c-0.6,2-2.2,3.5-4.6,4.5c-2.3,1-5.1,1.5-8.5,1.6L202,532.9z M212.6,500.5c0.4-2.3-0.2-4.6-1.7-6.9
				c-1.6-2.4-3.8-4-6.4-4.8c-1.7-0.5-3.3-0.8-4.8-0.8c-4,0-7.1,1.9-9.4,5.7L212.6,500.5z"/>
			<path id="XMLID_84_" fill="#3A3A3A" d="M272.8,544.4c-2-0.2-3.5-1-4.6-2.5c-0.7-0.9-1.2-1.9-1.4-3c-1.6,1.2-3.6,2.3-5.8,3.1
				c-2.4,0.9-4.8,1.3-7.3,1.3c-0.7,0-1.4,0-2.1-0.1c-4.6-0.5-8.8-2.1-12.3-4.9c-3.5-2.8-6.2-6.5-7.9-11c-1.7-4.5-2.4-9.5-1.8-14.9
				c0.5-5.4,2.1-10.2,4.7-14.3c2.6-4.1,5.9-7.2,9.9-9.3c3.3-1.7,6.8-2.6,10.4-2.6c0.8,0,1.6,0,2.4,0.1c3.2,0.3,6.2,1.2,9,2.7
				c2,1.1,3.7,2.3,5.2,3.7l2.7-13.3c0.2-2,1-3.6,2.4-4.8c1.2-1.1,2.7-1.6,4.3-1.6c0.3,0,0.5,0,0.8,0c1.9,0.2,3.5,1,4.7,2.5
				c1.2,1.4,1.6,3.2,1.4,5.2l-7.1,57.1c-0.2,2-1,3.6-2.4,4.8c-1.2,1.1-2.7,1.6-4.3,1.6C273.4,544.5,273.1,544.4,272.8,544.4z
				 M256,499.4c-3.3,0-6,1.2-8.5,3.5c-2.8,2.7-4.4,6.4-4.9,10.9c-0.4,4.5,0.4,8.4,2.6,11.6c2.2,3.2,5.1,4.9,9.1,5.3
				c0.5,0.1,1,0.1,1.5,0.1c3.3,0,6.1-1.1,8.5-3.5c2.8-2.7,4.4-6.3,4.9-10.8c0.4-4.5-0.4-8.4-2.6-11.6c-2.2-3.2-5.2-5-9.1-5.3
				C257,499.4,256.5,499.4,256,499.4z"/>
			<path id="XMLID_65_" fill="#3A3A3A" d="M317.7,543.8c-3.9,0-7.7-0.8-11.2-2.4c-4.4-2-8.1-5.1-10.9-9.1c-2.8-4.1-4.5-8.9-5.1-14.3
				c-0.5-5.4,0.2-10.5,2.2-15c2-4.6,5-8.3,8.9-11.1c3.9-2.8,8.5-4.5,13.6-5c1-0.1,2-0.1,2.9-0.1c3.9,0,7.7,0.8,11.3,2.4
				c4.4,2,8.1,5.1,10.9,9.2c2.8,4.1,4.5,8.9,5.1,14.3c0.5,5.4-0.2,10.5-2.2,15c-2,4.6-5,8.3-9,11.1c-3.9,2.8-8.5,4.5-13.5,4.9
				C319.7,543.8,318.7,543.8,317.7,543.8z M317.8,499.6c-0.5,0-0.9,0-1.4,0.1c-2.5,0.3-4.8,1.1-6.7,2.6c-2,1.5-3.4,3.5-4.5,6
				c-1,2.5-1.4,5.3-1.1,8.4c0.3,3.1,1.2,5.7,2.7,8c1.5,2.2,3.3,3.9,5.5,5c1.8,0.9,3.7,1.3,5.7,1.3l0,0c0.5,0,0.9,0,1.4-0.1
				c2.5-0.2,4.8-1.1,6.7-2.6c2-1.5,3.5-3.5,4.5-6c1-2.5,1.4-5.3,1.1-8.3c-0.3-3-1.2-5.7-2.7-8c-1.5-2.3-3.3-3.9-5.5-5
				C321.7,500,319.8,499.6,317.8,499.6z"/>
			<path id="XMLID_30_" fill="#3A3A3A" d="M375.6,532.4c-2.2,0-4.3-0.3-6.4-0.9c-4.5-1.3-8.4-3.7-11.7-7.3c-3.3-3.5-5.7-7.9-7.2-13
				c-1.6-5.3-1.9-10.4-0.9-15.1c0.9-4.8,3-9,6.2-12.4c3.2-3.5,7.3-6,12.2-7.4c3.7-1.1,7.1-1.6,10.1-1.6c1.4,0,2.7,0.1,4,0.4
				c4.1,0.8,6.7,2.8,7.6,6c0.5,1.6,0.4,3.2-0.2,4.7c-0.6,1.6-1.7,2.6-3.4,3.1c-0.8,0.2-1.6,0.4-2.3,0.4c-0.2,0-0.5,0-0.7,0
				c-0.8-0.1-1.6-0.3-2.4-0.7c-0.7-0.3-1.3-0.5-1.9-0.6c-0.3-0.1-0.7-0.1-1.3-0.1c-0.4,0-0.9,0-1.5,0.1c-1.2,0.1-2.2,0.3-2.9,0.5
				c-4.4,1.3-7.4,3.7-9.1,7.2c-1.7,3.5-1.8,7.6-0.5,12.1c1.3,4.3,3.6,7.6,7,9.6c2.1,1.3,4.4,2,6.8,2c1.3,0,2.7-0.2,4.1-0.6
				c2.9-0.8,4.9-1.8,6.1-2.9c0.3-0.3,0.7-0.7,1.1-1.3c0.6-0.7,1.1-1.3,1.6-1.8c0.6-0.5,1.4-0.9,2.3-1.2c0.7-0.2,1.3-0.3,2-0.3
				c1.1,0,2.1,0.3,3,0.8c1.4,0.9,2.4,2.2,2.9,4.1c0.5,1.8,0,3.8-1.5,5.9c-1.4,1.9-3.5,3.8-6.3,5.5c-2.7,1.7-5.8,3-9.1,4
				C380.7,532,378.1,532.4,375.6,532.4z"/>
			<path id="XMLID_29_" fill="#3A3A3A" d="M418,516.9c-0.7,0-1.4-0.1-2.1-0.4c-1.8-0.6-3.1-1.8-4-3.5l-25.6-50.3
				c-0.9-1.8-1.1-3.6-0.6-5.3c0.5-1.8,1.7-3.2,3.4-4.1c1.1-0.6,2.1-0.8,3.2-0.8c0.7,0,1.4,0.1,2.1,0.3c1.8,0.6,3.1,1.8,4,3.5
				l13,26.5l8.2-25.7c0.6-1.9,1.7-3.4,3.4-4.2c0.8-0.4,1.7-0.7,2.7-0.7c0.8,0,1.6,0.1,2.4,0.4c1.8,0.6,3.1,1.6,3.8,3
				c0.9,1.7,0.9,3.6,0.1,5.9l-6.3,18.2l23,8.4c1.9,0.7,3.4,1.9,4.3,3.6c0.9,1.7,1,3.5,0.3,5.4c-0.7,1.8-1.8,3.1-3.3,3.9
				c-1,0.5-2,0.8-3,0.8c-0.8,0-1.7-0.2-2.5-0.5l-23.4-8.2l-1.7,4.9l4.7,8.9c0.9,1.8,1.1,3.5,0.6,5.3c-0.5,1.8-1.7,3.2-3.4,4.1
				C420.1,516.6,419,516.9,418,516.9z"/>
			<path id="XMLID_25_" fill="#3A3A3A" d="M468.1,481.9c-3,0-6-0.6-8.9-1.6c-4.5-1.7-8.5-4.6-11.9-8.5c-3.8-4.4-6.3-9.2-7.4-14.1
				c-1.1-4.9-0.9-9.7,0.6-14.1c1.5-4.4,3.9-8.1,7.4-11.1c3.4-2.9,7.4-4.8,12-5.5c1.4-0.2,2.8-0.3,4.2-0.3c3.2,0,6.4,0.6,9.5,1.7
				c4.5,1.6,8.4,4.3,11.6,8c1.2,1.5,1.6,3.2,1.4,4.9c-0.3,1.7-1.1,3.2-2.5,4.4L460.6,466c2.5,1.7,5.1,2.5,7.9,2.5l0.6,0
				c3.3-0.1,6.3-1.3,8.7-3.4c1.9-1.7,3.3-3.2,4-4.4c0.8-1.3,1.3-2.4,1.6-3.3l0.6-2.1c0.6-1.4,1.3-2.5,2.2-3.3
				c1.1-0.9,2.4-1.4,3.8-1.4l0.5,0c1.6,0.1,3,0.8,4.1,2c1.4,1.6,1.8,3.7,1.3,6.3c-0.4,2.5-1.5,5.2-3.1,8c-1.7,2.9-3.8,5.4-6.2,7.5
				c-4.3,3.7-8.8,6-13.6,6.9C471.4,481.8,469.7,481.9,468.1,481.9z M463.8,439.4c-2.9,0.1-5.4,1-7.5,2.9c-5,4.4-6.2,9.2-3.4,14.7
				l17.7-15.3c-1.7-1.5-3.8-2.3-6.4-2.3v-1L463.8,439.4z"/>
			<path id="XMLID_24_" fill="#3A3A3A" d="M512.2,443.1c-1.4,0-2.8-0.5-4.2-1.4l-33.6-23.6c-1.6-1.1-2.6-2.6-3-4.5
				c-0.4-1.8,0-3.6,1.2-5.2c1.1-1.6,2.6-2.6,4.5-2.8c0.4-0.1,0.7-0.1,1.1-0.1c0.9,0,1.8,0.2,2.7,0.6c-0.6-2.1-0.7-4.3-0.4-6.6
				c0.5-3.3,1.7-6.3,3.6-9c1.2-1.8,2.9-2.9,4.8-3.4c0.6-0.2,1.3-0.3,1.9-0.3c1.2,0,2.4,0.4,3.3,1.1c1.9,1.3,3,2.9,3.3,4.6
				c0.3,1.7-0.1,3.3-1.1,4.7c-0.6,0.9-1.5,1.7-2.7,2.6l-1,0.8c-0.5,0.4-0.9,0.9-1.3,1.4c-0.9,1.2-1.3,2.7-1.3,4.4
				c0,1.7,0.5,3.5,1.6,5.4c1.1,1.9,2.8,3.7,5.1,5.4l19.3,13.6c1.6,1.1,2.6,2.6,3,4.5c0.4,1.8,0,3.6-1.2,5.2
				c-1.1,1.6-2.6,2.6-4.5,2.8C512.9,443.1,512.6,443.1,512.2,443.1z"/>
		</g>
	</g>
</g>
</svg>
